<svg width="1200" height="900" viewBox="0 0 1200 900" xmlns="http://www.w3.org/2000/svg" role="img" aria-label="Adrian Alcantara Multi-versales">
  <defs>
    <linearGradient id="bg" x1="0" y1="0" x2="1" y2="1">
      <stop offset="0%" stop-color="#0A1A26"/>
      <stop offset="48%" stop-color="#14293C"/>
      <stop offset="100%" stop-color="#08111B"/>
    </linearGradient>
    <radialGradient id="glow" cx="50%" cy="24%" r="64%">
      <stop offset="0%" stop-color="#54A6E5" stop-opacity="0.48"/>
      <stop offset="100%" stop-color="#54A6E5" stop-opacity="0"/>
    </radialGradient>
  </defs>
  <rect width="1200" height="900" fill="url(#bg)"/>
  <rect width="1200" height="900" fill="url(#glow)"/>

  <g fill="#0C1520">
    <circle cx="280" cy="300" r="86"/>
    <rect x="180" y="370" width="200" height="250" rx="95"/>
    <circle cx="530" cy="265" r="92"/>
    <rect x="420" y="350" width="220" height="290" rx="105"/>
    <circle cx="760" cy="295" r="84"/>
    <rect x="665" y="365" width="190" height="245" rx="92"/>
    <circle cx="955" cy="315" r="88"/>
    <rect x="850" y="395" width="210" height="260" rx="100"/>
  </g>

  <g fill="#2A3F52">
    <ellipse cx="280" cy="250" rx="110" ry="90"/>
    <ellipse cx="530" cy="210" rx="125" ry="95"/>
    <ellipse cx="760" cy="245" rx="102" ry="82"/>
    <ellipse cx="955" cy="270" rx="115" ry="92"/>
  </g>

  <g font-family="Inter,Segoe UI,sans-serif" text-anchor="middle">
    <text x="600" y="760" fill="#F3F7FB" font-size="54" font-weight="700">Adrian Alcantara</text>
    <text x="600" y="818" fill="#7ED3F8" font-size="46" font-weight="600">Multi-versales</text>
  </g>
</svg>

