<?xml version="1.0" encoding="UTF-8" standalone="no"?>
<svg xmlns="http://www.w3.org/2000/svg" viewBox="0 0 512 512" width="512" height="512">
  <defs>
    <linearGradient id="bgGrad" x1="0%" y1="0%" x2="100%" y2="100%">
      <stop offset="0%" stop-color="#3f88c5"/>
      <stop offset="100%" stop-color="#44bba4"/>
    </linearGradient>
    <linearGradient id="barGrad" x1="0%" y1="0%" x2="0%" y2="100%">
      <stop offset="0%" stop-color="#ffffff" stop-opacity="1"/>
      <stop offset="100%" stop-color="#f6f7eb" stop-opacity="0.92"/>
    </linearGradient>
    <filter id="soft" x="-10%" y="-10%" width="120%" height="120%">
      <feGaussianBlur stdDeviation="3"/>
    </filter>
  </defs>
  <rect width="512" height="512" rx="112" ry="112" fill="url(#bgGrad)"/>
  <g transform="translate(96 96)" opacity="0.18">
    <circle cx="160" cy="160" r="160" fill="none" stroke="#ffffff" stroke-width="6"/>
    <circle cx="160" cy="160" r="120" fill="none" stroke="#ffffff" stroke-width="4"/>
    <circle cx="160" cy="160" r="80" fill="none" stroke="#ffffff" stroke-width="3"/>
  </g>
  <g transform="translate(256 256)">
    <rect x="-150" y="-50" width="36" height="100" rx="14" ry="14" fill="url(#barGrad)"/>
    <rect x="-94"  y="-110" width="36" height="220" rx="14" ry="14" fill="url(#barGrad)"/>
    <rect x="-38"  y="-160" width="36" height="320" rx="14" ry="14" fill="url(#barGrad)"/>
    <rect x="18"   y="-110" width="36" height="220" rx="14" ry="14" fill="url(#barGrad)"/>
    <rect x="74"   y="-50" width="36" height="100" rx="14" ry="14" fill="url(#barGrad)"/>
  </g>
  <circle cx="402" cy="402" r="14" fill="#ffffff" opacity="0.85"/>
</svg>
